<svg width="127" height="35" viewBox="0 0 127 35" fill="none" xmlns="http://www.w3.org/2000/svg">
<path d="M5.77595 15.8502C1.93626 15.8502 8.24315e-07 13.2248 8.24315e-07 10.2055C8.24315e-07 8.23645 0.820449 6.10329 2.52698 4.39676L7.41685 5.70947C6.00568 7.08783 5.21805 8.82718 5.21805 10.2383C5.21805 12.2074 6.53077 12.9951 8.46702 12.9951C10.5017 12.9951 13.2256 12.1418 15.8839 10.8619C15.7198 9.94299 15.5885 9.02408 15.5885 8.03955C15.5885 3.54349 19.0672 0.0319742 24.0884 -0.000843263H24.154H24.1868C26.4512 -0.000843263 27.8624 0.261699 27.8624 1.44314C27.8624 3.67476 24.1868 7.41601 19.4938 10.5337C20.8722 13.8483 23.3335 17.2942 23.3335 21.1339C23.3335 26.4504 17.8858 29.1087 12.6677 29.1087C7.94194 29.1087 3.41306 26.877 3.41306 22.3482C3.41306 21.9543 3.4787 21.4949 3.54434 21.0354L8.30294 19.0007C8.00757 19.9853 7.8763 20.9042 7.8763 21.7246C7.8763 25.5315 10.8299 27.5006 13.6851 27.5006C16.3433 27.5006 18.9359 25.794 18.9359 22.2497C18.9359 18.771 17.295 15.7518 16.3105 12.47C12.6677 14.439 8.82802 15.8502 5.77595 15.8502ZM18.6406 6.82528C18.6406 7.5801 18.7719 8.36773 19.0016 9.12254C22.4475 6.98937 25.2042 4.33112 25.2042 2.39487C25.2042 1.86978 24.8103 1.80414 24.154 1.80414C20.8722 1.83696 18.6406 4.16703 18.6406 6.82528ZM30.8522 26.3848C29.0144 26.3848 27.7345 25.4659 27.275 23.7265C26.3889 27.1724 25.7326 30.8152 25.2731 34.5892L21.1381 33.2109L28.0955 10.3696L31.1804 11.2557C32.2633 10.1071 33.412 9.4179 34.5934 9.4179C37.1204 9.4179 38.3347 12.2731 38.3347 15.6205C38.3347 20.4775 35.7749 26.3848 30.8522 26.3848ZM28.1611 21.1995C28.1611 22.1841 28.5549 23.0045 29.6707 23.0045C32.69 23.0045 34.8888 18.3116 34.8888 15.1282C34.8888 13.5201 34.3309 12.3059 33.0182 12.3059C31.6726 12.3059 30.524 13.5201 29.6379 15.883C29.1785 17.1629 28.7518 18.4428 28.358 19.7555C28.2267 20.2478 28.1611 20.7401 28.1611 21.1995ZM42.8792 26.3848C40.6147 26.3848 38.58 24.4485 38.58 20.8714C38.58 14.6359 43.3058 9.54917 46.7189 9.54917C48.2941 9.54917 49.5084 10.5337 49.935 12.8638L50.7883 10.3696L54.5624 11.2557C53.0199 15.5549 51.5431 20.1494 51.5431 21.4621C51.5431 22.7748 51.9369 23.2999 52.5605 23.2999C54.0045 23.2999 55.6125 20.215 56.6299 17.4255H57.516C55.711 23.1686 53.4137 26.3848 50.8211 26.3848C49.3115 26.3848 48.13 25.3018 47.8347 22.9389C46.522 25.269 44.6513 26.3848 42.8792 26.3848ZM42.6495 20.4775C42.6495 22.4138 43.4699 23.2671 44.4873 23.2671C45.8656 23.2671 47.605 21.6918 48.13 19.1648C48.2941 18.4428 48.491 17.6552 48.7208 16.8348C48.9833 15.8174 49.1146 14.9969 49.1146 14.3406C49.1146 12.8966 48.5239 12.2402 47.7034 12.2402C45.8 12.2402 42.6495 15.6533 42.6495 20.4775ZM61.7746 26.3848C60.0353 26.3848 58.4272 24.7767 58.4272 21.5933C58.4272 18.9351 59.5102 15.6205 60.6588 12.7653C60.1993 12.9622 59.6743 13.0607 59.182 13.0607C58.9851 13.0607 58.7882 13.0607 58.5913 13.0279C57.8036 15.0626 57.0816 16.8676 56.2612 19.0336H55.3423C56.2612 16.7691 56.7535 14.8329 57.2786 12.47C56.8191 12.109 56.4909 11.6167 56.4909 10.9275L58.2631 9.45072C58.5256 10.2712 59.8055 11.3213 60.8557 11.3213C61.0198 11.3213 61.1511 11.2885 61.2823 11.2557L61.7418 10.2055L65.3189 11.3213C63.3827 15.7518 62.4966 19.4602 62.4966 21.4621C62.4966 22.7748 62.8904 23.2999 63.514 23.2999C64.9579 23.2999 66.566 20.215 67.5834 17.4255H68.4695C66.6645 23.1686 64.3672 26.3848 61.7746 26.3848ZM64.1872 26.3848L70.6852 4.33112L74.7218 5.31566L70.6524 18.4428C71.4072 17.3927 72.3589 16.605 73.245 16.1456C73.9998 12.0433 76.1986 9.64762 79.7101 9.64762L78.6599 12.9622C76.2642 12.9622 74.9515 13.914 74.1311 15.7846C74.4264 15.6861 74.689 15.6533 74.9187 15.6533C76.494 15.6533 77.2816 16.8348 77.2816 20.576C77.2816 22.7748 77.6754 23.2999 78.2661 23.2999C79.7101 23.2999 81.351 20.215 82.3684 17.4255H83.2545C81.4166 23.1686 79.1522 26.3848 76.5596 26.3848C74.8202 26.3848 73.5075 24.908 73.5075 21.7574C73.5075 20.7729 73.5075 18.1146 72.5886 18.1146C71.7354 18.1146 70.2914 19.854 69.5037 22.0856L68.1582 26.3848H64.1872ZM85.3779 26.3848C82.654 26.3848 80.1598 24.2844 80.1598 20.7073C80.1598 13.8811 85.4107 9.64762 88.9222 9.64762C90.6287 9.64762 91.9415 10.7306 91.9415 12.9951C91.9415 16.1784 88.9222 20.7401 84.5574 20.9042C85.0497 22.4138 86.1983 23.3327 87.6095 23.3327C89.4473 23.3327 91.7117 21.659 93.2542 17.4255H94.1403C92.1384 23.6937 88.4299 26.3848 85.3779 26.3848ZM84.2949 19.0336C84.3277 19.5586 84.4918 19.7555 84.8856 19.7555C86.7234 19.7555 89.1847 17.1629 89.1847 14.1765C89.1847 13.5858 88.955 13.192 88.3315 13.192C86.4609 13.192 84.3605 15.5877 84.2949 19.0336ZM96.9641 26.3848C94.2402 26.3848 91.7461 24.2844 91.7461 20.7073C91.7461 13.8811 96.997 9.64762 100.508 9.64762C102.215 9.64762 103.528 10.7306 103.528 12.9951C103.528 16.1784 100.508 20.7401 96.1437 20.9042C96.636 22.4138 97.7846 23.3327 99.1958 23.3327C101.034 23.3327 103.298 21.659 104.84 17.4255H105.727C103.725 23.6937 100.016 26.3848 96.9641 26.3848ZM95.8811 19.0336C95.914 19.5586 96.0781 19.7555 96.4719 19.7555C98.3097 19.7555 100.771 17.1629 100.771 14.1765C100.771 13.5858 100.541 13.192 99.9177 13.192C98.0471 13.192 95.9468 15.5877 95.8811 19.0336ZM103.94 34.5892L99.1486 33.2109L104.957 14.1437C105.22 13.2904 105.482 12.5028 105.778 11.748H104.826V10.3696H106.369C108.272 6.13611 110.7 3.90449 113.129 3.90449C114.245 3.90449 115.361 4.36394 116.444 5.31566L114.934 8.95845C114.376 8.33491 113.785 8.00673 113.162 8.00673C112.276 8.00673 111.094 8.72872 110.175 10.3696H112.407V11.748H109.552C106.73 18.7382 103.94 28.6164 103.94 34.5892ZM113.674 34.5892C112.492 34.5892 111.212 34.3923 109.801 33.9329L108.981 29.9947C110.392 30.487 111.639 30.7495 112.722 30.7495C117.546 30.7495 119.975 26.4504 121.222 21.6262C119.154 24.7111 116.791 26.3848 114.921 26.3848C113.345 26.3848 112.23 25.2033 112.23 22.6107C112.23 19.0664 114.428 13.6186 115.905 10.3696L119.778 11.3213C117.448 15.7518 116.036 19.8868 116.036 21.9543C116.036 22.9061 116.397 23.2999 117.054 23.2999C118.859 23.2999 121.419 20.6416 122.009 17.4255C122.403 14.7016 122.534 12.109 122.6 10.3696L126.538 11.3213C124.864 18.771 124.044 34.5892 113.674 34.5892Z" fill="white"/>
</svg>
